<svg width="290" height="40" viewBox="0 0 290 40" fill="none" xmlns="http://www.w3.org/2000/svg">
<circle cx="270" cy="20" r="19" stroke="#E3E3E3" stroke-width="2"/>
<circle cx="145" cy="20" r="19" stroke="#E3E3E3" stroke-width="2"/>
<circle cx="20" cy="20" r="20" fill="#71D1EC"/>
<line x1="114" y1="21" x2="51" y2="21" stroke="#E3E3E3" stroke-width="2" stroke-linecap="round"/>
<line x1="239" y1="21" x2="176" y2="21" stroke="#E3E3E3" stroke-width="2" stroke-linecap="round"/>
<path fill-rule="evenodd" clip-rule="evenodd" d="M142 28C141.448 28 141 27.5523 141 27L141 14C141 13.4477 141.448 13 142 13C142.552 13 143 13.4477 143 14L143 27C143 27.5523 142.552 28 142 28Z" fill="#E3E3E3"/>
<path fill-rule="evenodd" clip-rule="evenodd" d="M148 28C147.448 28 147 27.5523 147 27L147 14C147 13.4477 147.448 13 148 13C148.552 13 149 13.4477 149 14L149 27C149 27.5523 148.552 28 148 28Z" fill="#E3E3E3"/>
<path fill-rule="evenodd" clip-rule="evenodd" d="M264 28C263.448 28 263 27.5523 263 27L263 14C263 13.4477 263.448 13 264 13C264.552 13 265 13.4477 265 14L265 27C265 27.5523 264.552 28 264 28Z" fill="#E3E3E3"/>
<path fill-rule="evenodd" clip-rule="evenodd" d="M270 28C269.448 28 269 27.5523 269 27L269 14C269 13.4477 269.448 13 270 13C270.552 13 271 13.4477 271 14L271 27C271 27.5523 270.552 28 270 28Z" fill="#E3E3E3"/>
<path fill-rule="evenodd" clip-rule="evenodd" d="M276 28C275.448 28 275 27.5523 275 27L275 14C275 13.4477 275.448 13 276 13C276.552 13 277 13.4477 277 14L277 27C277 27.5523 276.552 28 276 28Z" fill="#E3E3E3"/>
</svg>
