<svg width="8" height="15" viewBox="0 0 8 15" fill="none" xmlns="http://www.w3.org/2000/svg">
<path fill-rule="evenodd" clip-rule="evenodd" d="M1 15C0.447715 15 -1.95703e-08 14.5523 -4.37114e-08 14L-6.1196e-07 1C-6.36101e-07 0.447715 0.447715 -1.95703e-08 0.999999 -4.37114e-08C1.55228 -6.78525e-08 2 0.447715 2 1L2 14C2 14.5523 1.55228 15 1 15Z" fill="#E3E3E3"/>
<path fill-rule="evenodd" clip-rule="evenodd" d="M7 15C6.44772 15 6 14.5523 6 14L6 1C6 0.447715 6.44771 -1.95703e-08 7 -4.37114e-08C7.55228 -6.78525e-08 8 0.447715 8 1L8 14C8 14.5523 7.55228 15 7 15Z" fill="#E3E3E3"/>
</svg>
