<svg width="12" height="15" viewBox="0 0 12 15" fill="none" xmlns="http://www.w3.org/2000/svg">
<path fill-rule="evenodd" clip-rule="evenodd" d="M5.44458 14.4375C4.9256 14.2486 4.65801 13.6747 4.8469 13.1558L9.29316 0.939762C9.48206 0.420784 10.0559 0.153197 10.5749 0.34209C11.0939 0.530982 11.3614 1.10482 11.1725 1.6238L6.72629 13.8398C6.5374 14.3588 5.96355 14.6264 5.44458 14.4375Z" fill="#E3E3E3"/>
<path fill-rule="evenodd" clip-rule="evenodd" d="M6.07006 14.4375C5.55109 14.6264 4.97724 14.3588 4.78835 13.8398L0.342089 1.62384C0.153196 1.10487 0.420784 0.531024 0.939761 0.342132C1.45874 0.153239 2.03258 0.420826 2.22147 0.939804L6.66774 13.1558C6.85663 13.6748 6.58904 14.2486 6.07006 14.4375Z" fill="#E3E3E3"/>
</svg>
