<?xml version="1.0" standalone="no"?>
<!DOCTYPE svg PUBLIC "-//W3C//DTD SVG 20010904//EN"
 "http://www.w3.org/TR/2001/REC-SVG-20010904/DTD/svg10.dtd">
<svg version="1.0" xmlns="http://www.w3.org/2000/svg"
 width="800.000000pt" height="800.000000pt" viewBox="0 0 800.000000 800.000000"
 preserveAspectRatio="xMidYMid meet">
<metadata>
Created by potrace 1.14, written by Peter Selinger 2001-2017
</metadata>
<g transform="translate(0.000000,800.000000) scale(0.100000,-0.100000)"
fill="#000000" stroke="none">
<path d="M3514 7985 c-152 -27 -284 -78 -399 -153 -38 -26 -75 -51 -81 -57
-201 -181 -305 -350 -359 -580 -4 -16 -10 -39 -13 -50 -4 -11 -8 -1226 -9
-2700 -2 -1548 -7 -2681 -12 -2685 -13 -7 -2179 -6 -2186 2 -5 5 -9 748 -6
1021 l1 59 58 -2 c31 -1 62 -1 67 0 6 1 14 1 20 0 5 -1 37 -1 70 0 33 1 71 1
85 0 14 -1 35 -2 48 -1 70 3 162 3 192 1 14 -1 35 -2 48 -1 70 3 162 3 192 1
14 -1 35 -2 48 -1 40 1 56 2 112 2 99 0 120 4 148 32 l27 27 1 865 1 866 422
421 c232 232 430 433 440 447 9 14 16 33 16 41 -1 8 -3 22 -3 31 -2 20 -30 52
-61 68 -56 30 -63 25 -533 -443 -246 -244 -454 -457 -464 -472 -17 -25 -18
-76 -19 -853 l0 -826 -43 -1 c-23 -1 -48 -4 -56 -7 -8 -3 -17 -3 -20 0 -7 8
-453 6 -466 -2 -5 -3 -10 -3 -10 2 0 9 -389 8 -398 -1 -3 -3 -10 -2 -16 3 -16
12 -73 -15 -93 -45 -16 -24 -17 -79 -17 -695 0 -526 3 -673 13 -692 30 -55
-27 -53 1304 -52 l1229 0 29 33 c16 18 29 45 30 60 0 15 2 1242 3 2727 2 1485
4 2700 5 2700 1 0 4 19 6 42 6 78 36 159 108 295 91 172 347 344 558 374 29 4
263 8 519 8 l465 1 2 -722 2 -723 -75 -75 c-41 -41 -79 -87 -84 -101 -13 -34
-14 -3163 0 -3198 22 -58 114 -74 161 -27 28 29 29 32 29 138 1 59 1 761 1
1558 l0 1450 322 323 c177 177 326 322 330 322 4 0 146 -138 316 -307 l307
-308 0 -2247 c0 -1822 2 -2251 13 -2270 30 -58 -15 -56 968 -54 l903 1 27 28
28 27 3 718 c2 549 0 724 -10 747 -14 34 -571 594 -593 596 -8 1 -21 2 -27 3
-37 5 -89 -40 -355 -307 -253 -254 -292 -297 -298 -330 -4 -21 -8 -318 -9
-660 l-1 -622 -222 0 c-123 -1 -223 2 -224 5 0 3 -1 1002 -2 2220 l-2 2215
-22 30 c-45 62 -674 681 -714 703 -53 28 -110 28 -167 1 -27 -14 -109 -86
-219 -195 -96 -96 -176 -174 -178 -174 -1 0 -3 287 -3 638 0 690 1 674 -55
734 -59 64 -43 62 -587 64 -361 1 -514 -2 -566 -11z m3838 -4772 l218 -218 0
-617 c0 -340 -3 -619 -7 -620 -5 0 -205 -2 -445 -3 l-438 -1 0 613 0 613 223
224 c122 124 224 225 227 225 3 1 103 -97 222 -216z"/>
<path d="M318 1243 c-10 -3 -18 -8 -19 -11 -5 -43 -4 -55 6 -69 11 -15 302
-16 3688 -16 2992 0 3679 2 3691 13 21 17 20 53 -1 72 -16 14 -386 16 -3683
15 -2016 0 -3673 -2 -3682 -4z"/>
<path d="M92 968 c-9 -9 -12 -130 -12 -484 0 -468 0 -473 20 -479 50 -16 50
-17 50 484 0 471 -1 491 -35 491 -6 0 -16 -5 -23 -12z"/>
<path d="M4021 966 c-7 -8 -9 -175 -8 -480 2 -432 3 -470 19 -480 14 -8 21 -7
34 6 14 14 16 43 16 213 l-1 197 137 -4 c129 -3 140 -5 189 -32 87 -48 108
-92 115 -242 2 -50 39 -118 68 -125 54 -13 85 40 35 63 -27 12 -33 32 -39 130
-3 37 -13 86 -24 110 -19 42 -91 118 -113 118 -7 0 6 12 27 26 71 49 124 143
126 229 1 24 -13 88 -26 119 -21 50 -80 111 -134 137 -43 21 -62 23 -229 25
-134 2 -184 -1 -192 -10z m381 -75 c86 -38 129 -105 129 -202 0 -68 -57 -154
-121 -182 -14 -6 -93 -14 -176 -17 l-152 -5 0 213 -1 212 139 0 c114 0 146 -3
182 -19z"/>
<path d="M6312 962 c-5 -9 -8 -104 -8 -209 1 -106 0 -193 -1 -193 -1 0 -17 15
-36 33 -98 92 -236 115 -357 61 -89 -40 -170 -137 -187 -222 -6 -35 -11 -56
-13 -62 -3 -7 1 -60 6 -95 2 -16 18 -58 35 -92 93 -192 343 -243 502 -103 25
22 47 40 49 40 2 0 3 -19 3 -43 -1 -23 2 -50 7 -60 13 -26 50 -18 58 13 7 31
6 928 -2 935 -14 15 -49 13 -56 -3z m-159 -373 c150 -77 197 -270 98 -409 -73
-103 -204 -138 -316 -84 -105 49 -163 156 -151 276 17 183 212 297 369 217z"/>
<path d="M499 677 c-14 -10 -16 -49 -17 -292 0 -154 -1 -289 -2 -300 -5 -55
20 -96 48 -79 15 10 18 38 22 240 4 203 7 232 24 259 82 128 237 149 337 45
52 -56 59 -91 59 -322 0 -210 3 -228 41 -228 25 0 28 30 28 251 0 179 1 200
21 241 26 55 62 90 117 110 118 44 255 -33 279 -157 4 -21 7 -124 8 -231 1
-203 5 -222 45 -209 21 6 22 10 20 228 -1 280 -13 318 -119 399 -35 27 -135
56 -175 52 -44 -5 -79 -16 -114 -34 -38 -19 -101 -76 -101 -91 0 -5 -7 -9 -15
-9 -8 0 -15 4 -15 9 0 19 -82 86 -125 103 -100 39 -213 19 -287 -50 l-28 -26
0 36 c0 20 -7 44 -16 52 -18 19 -15 18 -35 3z"/>
<path d="M1829 677 c-15 -11 -17 -49 -17 -329 0 -338 2 -357 46 -344 19 7 21
14 22 89 0 45 0 89 1 97 0 8 0 60 0 115 -2 153 6 189 56 243 65 71 174 86 260
36 45 -26 89 -84 97 -128 5 -27 9 -135 6 -151 -1 -5 -1 -14 0 -20 7 -32 6 -56
-2 -61 -4 -3 -5 -10 -2 -16 4 -6 6 -53 6 -104 -2 -85 0 -93 19 -99 44 -14 48
2 51 243 l3 227 27 42 c75 114 237 131 329 33 53 -57 62 -102 63 -329 1 -108
5 -202 9 -208 12 -19 44 -16 51 4 4 10 6 115 5 235 -1 202 -3 221 -24 265 -35
75 -95 129 -170 154 -66 22 -172 11 -213 -22 -14 -10 -30 -19 -36 -19 -6 -1
-26 -20 -45 -45 l-35 -43 -25 33 c-32 41 -78 73 -133 92 -47 17 -128 23 -128
10 0 -4 -5 -5 -11 -1 -6 3 -23 1 -37 -6 -15 -7 -37 -17 -48 -22 -12 -6 -33
-21 -48 -34 l-26 -25 0 35 c0 19 -7 42 -16 50 -18 19 -15 18 -35 3z"/>
<path d="M3380 680 c-88 -16 -175 -79 -225 -164 -32 -55 -40 -96 -39 -191 1
-97 30 -162 103 -235 116 -116 308 -118 428 -3 73 70 103 137 108 241 5 106
-29 192 -103 267 -34 34 -105 75 -131 75 -10 0 -21 3 -25 7 -9 9 -72 10 -116
3z m115 -69 c6 -3 15 -6 22 -7 48 -8 147 -115 161 -174 43 -185 -59 -346 -228
-358 -53 -3 -74 0 -111 17 -137 65 -195 218 -139 366 24 63 104 137 166 154
34 9 115 11 129 2z"/>
<path d="M5085 681 c-3 -2 -15 -6 -26 -8 -65 -10 -169 -97 -204 -170 -45 -93
-49 -237 -9 -298 9 -14 13 -25 9 -25 -8 0 25 -46 53 -75 40 -41 69 -61 119
-82 110 -45 252 -15 336 72 l35 36 -1 -38 c-1 -60 11 -93 33 -93 11 0 23 8 28
17 6 14 10 568 3 646 -1 12 -10 17 -31 17 -32 0 -31 2 -32 -88 l-1 -33 -31 29
c-31 30 -116 86 -116 77 0 -2 -12 0 -27 6 -30 11 -130 19 -138 10z m161 -85
c47 -24 98 -78 124 -132 36 -75 33 -181 -7 -254 -86 -157 -274 -188 -397 -65
-53 52 -78 116 -79 195 -2 160 121 287 268 276 33 -3 74 -12 91 -20z"/>
<path d="M6867 678 c-90 -19 -177 -86 -217 -165 -13 -27 -25 -52 -27 -58 -21
-87 -23 -118 -9 -190 15 -78 112 -214 154 -215 6 0 12 -4 12 -9 0 -4 25 -16
56 -26 103 -32 230 -2 311 75 18 16 35 30 38 30 3 0 5 -15 4 -33 -3 -60 1 -76
22 -82 42 -14 44 0 44 339 0 299 -1 325 -17 335 -31 19 -55 -16 -52 -74 l3
-47 -21 18 c-12 11 -30 27 -41 38 -53 51 -178 82 -260 64z m164 -82 c132 -62
191 -232 130 -371 -89 -201 -360 -206 -457 -9 -92 189 43 412 242 399 28 -1
67 -10 85 -19z"/>
<path d="M7554 671 c-4 -9 -8 -157 -8 -330 -1 -326 0 -341 40 -341 23 0 25 16
27 191 2 163 2 164 35 230 54 111 138 182 226 193 46 6 56 13 56 36 0 43 -70
45 -155 5 -46 -22 -94 -63 -144 -123 l-19 -23 0 75 c0 41 -2 79 -6 84 -11 18
-44 20 -52 3z"/>
</g>
</svg>
