<svg width="16" height="15" viewBox="0 0 16 15" fill="none" xmlns="http://www.w3.org/2000/svg">
<path fill-rule="evenodd" clip-rule="evenodd" d="M1 15C0.447715 15 -1.95703e-08 14.5523 -4.37114e-08 14L-6.1196e-07 1C-6.36101e-07 0.447715 0.447715 -1.95703e-08 0.999999 -4.37114e-08C1.55228 -6.78525e-08 2 0.447715 2 1L2 14C2 14.5523 1.55228 15 1 15Z" fill="#E3E3E3"/>
<path fill-rule="evenodd" clip-rule="evenodd" d="M8.93969 14.5476C8.42071 14.3587 8.15313 13.7849 8.34202 13.2659L12.7883 1.04987C12.9772 0.530891 13.551 0.263305 14.07 0.452197C14.589 0.64109 14.8566 1.21493 14.6677 1.73391L10.2214 13.9499C10.0325 14.4689 9.45867 14.7365 8.93969 14.5476Z" fill="#E3E3E3"/>
<path fill-rule="evenodd" clip-rule="evenodd" d="M9.56515 14.5476C9.04617 14.7365 8.47233 14.4689 8.28344 13.95L3.83718 1.73395C3.64828 1.21497 3.91587 0.641132 4.43485 0.452239C4.95383 0.263347 5.52767 0.530933 5.71656 1.04991L10.1628 13.2659C10.3517 13.7849 10.0841 14.3587 9.56515 14.5476Z" fill="#E3E3E3"/>
</svg>
