<svg width="12" height="15" viewBox="0 0 12 15" fill="none" xmlns="http://www.w3.org/2000/svg">
<path fill-rule="evenodd" clip-rule="evenodd" d="M5.44458 14.4372C4.9256 14.2483 4.65801 13.6745 4.8469 13.1555L9.29316 0.939518C9.48206 0.42054 10.0559 0.152953 10.5749 0.341846C11.0939 0.530738 11.3614 1.10458 11.1725 1.62356L6.72629 13.8396C6.5374 14.3585 5.96355 14.6261 5.44458 14.4372Z" fill="#E3E3E3"/>
<path fill-rule="evenodd" clip-rule="evenodd" d="M6.07003 14.4373C5.55106 14.6262 4.97721 14.3586 4.78832 13.8396L0.342058 1.6236C0.153166 1.10462 0.420753 0.53078 0.939731 0.341887C1.45871 0.152995 2.03255 0.420582 2.22144 0.93956L6.66771 13.1556C6.8566 13.6745 6.58901 14.2484 6.07003 14.4373Z" fill="#E3E3E3"/>
</svg>
