<?xml version="1.0" encoding="UTF-8"?><svg id="Layer_2" xmlns="http://www.w3.org/2000/svg" viewBox="0 0 195.85 199.67"><defs><style>.cls-1{fill:#fff;}</style></defs><g id="Layer_1-2"><g><g><path class="cls-1" d="M0,176.08c0-.45,.38-.84,.84-.84,.49,0,.87,.38,.87,.84v22.75c0,.45-.38,.84-.87,.84-.45,0-.84-.38-.84-.84v-22.75Z"/><path class="cls-1" d="M34.48,189.55c-.07-2.9-2.37-5.3-5.3-5.3s-5.27,2.41-5.27,5.3v9.42s-.03,.07-.03,.07v.07c-.07,.21-.24,.35-.42,.45-.14,.07-.28,.1-.42,.1h-.17s-.07-.03-.07-.03c-.07,0-.14-.07-.21-.1-.03,0-.07-.03-.1-.07l-.1-.1s-.03-.07-.07-.07t-.03-.07s0-.03-.03-.07c0-.03,0-.07-.03-.1v-9.49c0-2.9-2.34-5.3-5.27-5.3s-5.27,2.41-5.27,5.3v9.32c0,.28-.14,.52-.38,.66-.03,.03-.14,.1-.21,.1-.03,.03-.07,.03-.14,.03h-.21c-.31-.03-.59-.31-.7-.63v-15.63c0-.45,.38-.8,.8-.8,.49,0,.84,.35,.84,.8v1.64c1.26-1.5,3.14-2.44,5.27-2.44,2.65,0,4.92,1.47,6.11,3.63,1.22-2.16,3.52-3.63,6.14-3.63,3.84,0,6.94,3.11,6.94,6.94v9.32c0,.42-.35,.8-.84,.8-.45,0-.8-.38-.8-.8v-9.32Z"/><path class="cls-1" d="M67.67,189.55c-.07-2.9-2.37-5.3-5.3-5.3s-5.27,2.41-5.27,5.3v9.42s-.03,.07-.03,.07v.07c-.07,.21-.24,.35-.42,.45-.14,.07-.28,.1-.42,.1h-.17s-.07-.03-.07-.03c-.07,0-.14-.07-.21-.1-.03,0-.07-.03-.1-.07l-.1-.1s-.03-.07-.07-.07t-.03-.07s0-.03-.03-.07c0-.03,0-.07-.03-.1v-9.49c0-2.9-2.34-5.3-5.27-5.3s-5.27,2.41-5.27,5.3v9.32c0,.28-.14,.52-.38,.66-.03,.03-.14,.1-.21,.1-.03,.03-.07,.03-.14,.03h-.21c-.31-.03-.59-.31-.7-.63v-15.63c0-.45,.38-.8,.8-.8,.49,0,.84,.35,.84,.8v1.64c1.26-1.5,3.14-2.44,5.27-2.44,2.65,0,4.92,1.47,6.11,3.63,1.22-2.16,3.52-3.63,6.14-3.63,3.84,0,6.94,3.11,6.94,6.94v9.32c0,.42-.35,.8-.84,.8-.45,0-.8-.38-.8-.8v-9.32Z"/><path class="cls-1" d="M83.69,182.57c4.5,0,8.1,3.91,8.1,8.55s-3.59,8.55-8.1,8.55-8.1-3.91-8.1-8.55,3.63-8.55,8.1-8.55Zm0,15.43c3.49,0,6.42-3.07,6.42-6.88s-2.93-6.91-6.42-6.91-6.42,3.11-6.42,6.91,2.93,6.88,6.42,6.88Z"/><path class="cls-1" d="M110.73,194.16c0-1.78-.91-2.9-1.99-3.7-1.08-.77-2.37-1.15-2.83-1.22-.1-.03-.14-.07-.17-.07h-5.93v9.67c0,.45-.38,.84-.87,.84-.45,0-.84-.38-.84-.84v-22.75c0-.42,.35-.8,.77-.84h6.98c3.84,0,6.94,3.11,6.94,6.98,0,2.79-1.64,5.2-4.01,6.32,.1,.07,.21,.1,.35,.17,1.61,.91,3.28,2.69,3.28,5.44,0,1.43,.14,2.3,.31,2.83,.14,.42,.31,.56,.35,.59,.38-.03,.8,.17,.94,.56,.1,.45-.1,.94-.56,1.12-.03,0-.21,.03-.42,.03h-.07c-.45,0-1.19-.35-1.57-1.12-.42-.8-.66-1.95-.66-4.01Zm-4.89-17.21h-6.04v10.54h6.18c2.83-.07,5.13-2.41,5.13-5.27s-2.37-5.27-5.27-5.27Z"/><path class="cls-1" d="M134.36,183.41v15.43c0,.45-.38,.84-.84,.84s-.84-.38-.84-.84v-2.55c-1.47,2.02-3.8,3.39-6.42,3.39-4.5,0-8.1-3.87-8.1-8.55s3.59-8.55,8.1-8.55c2.62,0,4.96,1.33,6.42,3.35v-2.51c0-.49,.38-.84,.84-.84s.84,.35,.84,.84Zm-1.68,7.71c0-3.84-2.9-6.91-6.42-6.91s-6.42,3.07-6.42,6.91,2.93,6.88,6.42,6.88,6.42-3.04,6.42-6.88Z"/><path class="cls-1" d="M155.3,196.36c-1.5,2.02-3.87,3.32-6.56,3.32-4.61,0-8.27-3.84-8.27-8.52s3.66-8.58,8.27-8.58c2.69,0,5.06,1.33,6.56,3.35v-9.84c0-.45,.38-.84,.87-.84,.45,0,.84,.38,.84,.84v22.75c0,.45-.38,.84-.84,.84-.49,0-.87-.38-.87-.84v-2.48Zm0-4.92v-.56c-.14-3.66-3.04-6.6-6.56-6.6s-6.56,3.07-6.56,6.87,2.97,6.81,6.56,6.81,6.42-2.9,6.56-6.53Z"/><path class="cls-1" d="M179,183.41v15.43c0,.45-.38,.84-.84,.84s-.84-.38-.84-.84v-2.55c-1.47,2.02-3.8,3.39-6.42,3.39-4.5,0-8.1-3.87-8.1-8.55s3.59-8.55,8.1-8.55c2.62,0,4.96,1.33,6.42,3.35v-2.51c0-.49,.38-.84,.84-.84s.84,.35,.84,.84Zm-1.68,7.71c0-3.84-2.9-6.91-6.42-6.91s-6.42,3.07-6.42,6.91,2.93,6.88,6.42,6.88,6.42-3.04,6.42-6.88Z"/><path class="cls-1" d="M186.25,183.44c0-.49,.38-.84,.87-.84,.42,0,.8,.35,.8,.84v3.77c.07-.14,.14-.28,.24-.42,1.29-2.02,3.56-4.19,6.84-4.19,.45,0,.84,.35,.84,.84,0,.45-.38,.84-.84,.84-2.23,0-3.77,1.26-4.96,2.79-1.15,1.54-1.81,3.28-2.06,3.98-.07,.14-.07,.21-.07,.28v7.5c0,.49-.38,.84-.8,.84-.49,0-.87-.35-.87-.84v-15.39Z"/></g><g><path class="cls-1" d="M54.74,59.39l-10,10c-3.9,3.9-7.93,7.7-11.71,11.71-1.04,1.1-.95,2.21-.95,3.58v41.61l2.5-2.5H6.66c-1.35,0-2.5,1.15-2.5,2.5v32.07c0,1.35,1.15,2.5,2.5,2.5h60c1.35,0,2.5-1.15,2.5-2.5,0-3.02,0-6.04,0-9.05,0-7.07,0-14.14,0-21.2,0-9.54,0-19.08,0-28.61v-30.19c0-8.64,0-17.28,0-25.92v-15.82c0-.76,0-1.53,0-2.29,.04-6.31,3-12.45,8.13-16.21,2.65-1.94,5.7-3.22,8.94-3.76,1.53-.25,3.08-.22,4.63-.22,4.48,0,8.95,0,13.43,0h5.65c.32,0,.68,.04,1,0-.22,.03-.05-.31-.16-.05-.1,.22,0,.7,0,.94v1.82c0,1.84,0,3.68,0,5.51v26.48c0,.62,0,1.23,0,1.85,0,3.22,5,3.22,5,0,0-7.32,0-14.64,0-21.96V7.18c0-.75,.03-1.51,0-2.26-.13-2.97-2.41-4.82-5.27-4.84-4.11-.03-8.23,0-12.35,0-3.55,0-7.18-.22-10.73,.08-13.12,1.09-23.25,12.15-23.28,25.3,0,3.69,0,7.38,0,11.07,0,7.85,0,15.71,0,23.56v30.06c0,10.09,0,20.19,0,30.28,0,8.1,0,16.2,0,24.3,0,4.03,0,8.07,0,12.1,0,.51,0,1.02,0,1.52l2.5-2.5H6.66l2.5,2.5v-32.07l-2.5,2.5h27.93c1.35,0,2.5-1.15,2.5-2.5v-43.2l-.73,1.77,19.23-19.23,2.7-2.7c2.28-2.28-1.26-5.81-3.54-3.54h0Z"/><path class="cls-1" d="M111.56,124.39V46.43l-.73,1.77,15.08-15.08,1.37-1.37c.1-.1,.65-.51,.66-.66,0,.02-.29-.15-.25,.04,.05,.23,.65,.65,.81,.81l8.51,8.51c2.36,2.36,4.73,4.73,7.09,7.09l-.73-1.77c0,3.9,0,7.8,0,11.7v87.05c0,4.56-.17,9.16,0,13.71,0,.06,0,.13,0,.19,0,1.35,1.15,2.5,2.5,2.5h43.48c1.35,0,2.5-1.15,2.5-2.5v-33.51c0-.29,.01-.59,0-.88-.04-1.02-.46-1.7-1.14-2.37l-3.96-3.96c-3.01-3.01-6.02-6.02-9.03-9.03-.95-.95-2.58-.96-3.54,0-2.61,2.61-5.21,5.21-7.82,7.82l-4.68,4.68c-1.08,1.08-2.03,1.9-2.03,3.6,0,8.05,0,16.09,0,24.14v9.48c0,3.22,5,3.22,5,0v-29.8c0-1.45,0-2.91,0-4.36l-.73,1.77c4.6-4.6,9.2-9.2,13.8-13.8h-3.54c4.46,4.46,8.93,8.93,13.39,13.39l-.73-1.77v34.59l2.5-2.5h-43.48l2.5,2.5V47.52c0-.57,.04-1.17,0-1.74-.1-1.58-1.79-2.83-2.85-3.88-3.79-3.79-7.58-7.58-11.37-11.37-.99-.99-1.95-2.03-2.98-2.98-2.29-2.11-5.21-1.55-7.25,.5l-10.32,10.32-5.01,5.01c-.92,.92-1.95,1.7-2.02,3.12-.1,1.94,0,3.91,0,5.85V124.39c0,3.22,5,3.22,5,0h0Z"/><path class="cls-1" d="M6.51,171.03H181.49c2.37,0,4.75,.07,7.12,0,.1,0,.2,0,.3,0,1.61,0,1.61-2.5,0-2.5H13.93c-2.37,0-4.75-.07-7.12,0-.1,0-.2,0-.3,0-1.61,0-1.61,2.5,0,2.5h0Z"/></g></g></g></svg>